<svg width="22" height="19" viewBox="0 0 22 19" fill="none" xmlns="http://www.w3.org/2000/svg">
<path d="M11.8624 0.999956L21.3884 17.5C21.4762 17.652 21.5224 17.8244 21.5224 18C21.5224 18.1755 21.4762 18.3479 21.3884 18.4999C21.3007 18.652 21.1744 18.7782 21.0224 18.866C20.8704 18.9537 20.698 19 20.5224 19H1.47043C1.2949 19 1.12246 18.9537 0.970443 18.866C0.818427 18.7782 0.692193 18.652 0.604427 18.4999C0.516662 18.3479 0.470458 18.1755 0.470459 18C0.47046 17.8244 0.516666 17.652 0.604434 17.5L10.1304 0.999956C10.2182 0.847949 10.3444 0.721722 10.4965 0.633962C10.6485 0.546202 10.8209 0.5 10.9964 0.5C11.172 0.5 11.3444 0.546202 11.4964 0.633962C11.6484 0.721722 11.7747 0.847949 11.8624 0.999956V0.999956ZM3.20243 17H18.7904L10.9964 3.49996L3.20243 17V17ZM9.99643 14H11.9964V16H9.99643V14ZM9.99643 6.99996H11.9964V12H9.99643V6.99996Z" fill="#B25915"/>
</svg>
